<svg version="1.1" id="Layer_1" xmlns="http://www.w3.org/2000/svg" xmlns:xlink="http://www.w3.org/1999/xlink" x="0px" y="0px"
	 width="100%" viewBox="0 0 1760 240" enable-background="new 0 0 1760 240" xml:space="preserve">
<path fill="#000000" opacity="1.000000" stroke="none" 
	d="
M1761.000000,140.999969 
	C1761.000000,174.325348 1761.000000,207.650681 1761.000000,241.000000 
	C1222.303955,241.000000 683.607910,241.000000 144.158600,240.656799 
	C144.225327,239.876251 144.999741,239.207260 145.872040,239.035599 
	C166.079742,235.058777 183.921692,226.005997 199.494080,212.819717 
	C213.985199,200.549026 224.955902,185.353989 232.500107,167.890945 
	C235.042709,162.005371 236.607651,155.697418 238.810944,149.000443 
	C227.517746,149.000443 217.534073,148.914841 207.556076,149.113831 
	C206.371063,149.137436 204.555420,150.478714 204.149734,151.609985 
	C199.459091,164.690216 192.225052,176.192444 181.903641,185.381729 
	C175.488419,191.093277 168.036942,195.640869 161.050568,200.710876 
	C160.625549,200.317688 160.200546,199.924515 159.775528,199.531326 
	C159.775528,178.739410 159.775528,157.947510 159.775528,136.707581 
	C186.844864,136.707581 213.893982,136.707581 240.997299,136.707581 
	C240.997299,125.427612 242.186676,114.436653 240.751404,103.799843 
	C237.699188,81.179779 228.614395,60.654835 213.657791,43.376736 
	C195.546631,22.454428 173.100388,8.167175 145.471924,2.919887 
	C144.881042,2.807667 144.486267,1.663022 144.000000,1.000000 
	C683.000000,1.000000 1222.000000,1.000000 1761.000000,1.000000 
	C1761.000000,34.103931 1761.000000,67.096016 1760.650391,100.843124 
	C1759.946289,101.251625 1759.321289,100.936348 1759.277222,100.553970 
	C1758.072510,90.121376 1753.855835,80.706070 1748.889038,71.705139 
	C1741.498047,58.311169 1731.017090,47.625286 1717.578125,40.288475 
	C1698.683350,29.973263 1678.539673,26.101866 1656.964355,28.858009 
	C1643.792236,30.540686 1631.530884,34.111874 1620.164307,40.966061 
	C1591.823853,58.055820 1579.350952,84.329254 1577.179932,116.191231 
	C1576.640991,124.102104 1577.953125,132.218842 1579.078735,140.146622 
	C1581.349487,156.139374 1587.822388,170.641724 1598.384521,182.646957 
	C1621.667236,209.110718 1651.883911,217.526932 1685.887207,212.768631 
	C1701.777588,210.544968 1716.311279,204.148315 1729.048828,193.648895 
	C1745.302368,180.251343 1754.586670,163.132645 1759.064575,142.947891 
	C1759.232056,142.192612 1760.333618,141.644562 1761.000000,140.999969 
M344.000000,63.500000 
	C344.000000,112.928391 344.000000,162.356781 344.000000,212.000000 
	C367.220306,212.000000 389.870331,212.288406 412.506744,211.860199 
	C421.758789,211.685181 431.264374,211.046417 440.163483,208.730972 
	C465.006744,202.267090 484.148987,187.651825 495.639038,164.511108 
	C504.845612,145.969315 507.054382,126.034081 504.043976,105.488266 
	C500.824738,83.517067 491.495483,65.075165 474.262970,50.669609 
	C458.343964,37.362087 439.761719,30.906599 419.504150,30.195667 
	C395.700470,29.360289 371.845001,29.996334 348.011993,30.010214 
	C346.741241,30.010954 345.470581,30.159616 344.000000,30.251970 
	C344.000000,41.212036 344.000000,51.856018 344.000000,63.500000 
M1305.972046,111.324936 
	C1313.422974,99.178658 1315.356934,86.189659 1313.114014,72.119431 
	C1310.406128,55.133945 1300.098511,44.288307 1285.500610,37.390308 
	C1273.524658,31.731361 1260.357300,30.057560 1247.100586,30.014540 
	C1229.102417,29.956135 1211.104126,30.000000 1193.105835,30.000000 
	C1191.498047,30.000000 1189.890259,30.000000 1188.249512,30.000000 
	C1188.249512,90.904037 1188.249512,151.304993 1188.249512,211.747330 
	C1199.905396,211.747330 1211.310181,211.747330 1223.110229,211.747330 
	C1223.110229,188.091232 1223.110229,164.684555 1223.110229,141.000397 
	C1228.140137,141.000397 1232.852051,140.492615 1237.389282,141.164703 
	C1240.875977,141.681183 1245.554688,142.702835 1247.277954,145.184250 
	C1258.485107,161.322281 1269.682617,177.539948 1279.567871,194.498337 
	C1286.534546,206.449829 1294.280884,214.372940 1309.345703,212.166275 
	C1316.063599,211.182251 1323.045410,212.000000 1330.655396,212.000000 
	C1329.376465,209.868988 1328.699097,208.613312 1327.905029,207.436371 
	C1316.088257,189.926346 1304.365356,172.351501 1292.375854,154.960449 
	C1287.347534,147.667038 1281.746948,140.768265 1276.472046,133.776947 
	C1287.894287,130.315018 1297.844727,122.629463 1305.972046,111.324936 
M636.500977,107.000000 
	C630.450317,107.000000 624.399719,107.000000 618.682739,107.000000 
	C618.682739,90.409164 618.682739,74.373375 618.682739,57.948997 
	C645.147644,57.948997 671.898743,57.948997 698.779480,57.948997 
	C698.779480,48.490196 698.779480,39.420635 698.779480,30.210423 
	C660.496643,30.210423 622.434509,30.210423 584.191833,30.210423 
	C584.191833,90.810631 584.191833,151.200409 584.191833,211.641556 
	C622.564941,211.641556 660.745117,211.641556 698.640625,211.641556 
	C698.640625,202.206879 698.640625,193.132401 698.640625,183.865555 
	C671.648987,183.865555 645.016357,183.865555 618.678894,183.865555 
	C618.678894,167.192535 618.678894,150.726410 618.678894,133.840485 
	C639.643372,133.840485 660.717346,133.840485 681.710083,133.840485 
	C681.710083,124.681488 681.710083,115.943802 681.710083,107.000000 
	C666.780945,107.000000 652.140747,107.000000 636.500977,107.000000 
M1067.500000,212.000000 
	C1081.593628,212.000000 1095.687256,212.000000 1109.715576,212.000000 
	C1109.715576,202.359543 1109.715576,193.288681 1109.715576,183.844116 
	C1082.738770,183.844116 1056.044189,183.844116 1029.677368,183.844116 
	C1029.677368,167.026733 1029.677368,150.583832 1029.677368,133.855682 
	C1050.768677,133.855682 1071.703613,133.855682 1092.784912,133.855682 
	C1092.784912,124.834740 1092.784912,116.098503 1092.784912,106.989563 
	C1071.479980,106.989563 1050.386108,106.989563 1029.648193,106.989563 
	C1029.648193,90.487556 1029.648193,74.354027 1029.648193,57.787464 
	C1056.392090,57.787464 1083.124268,57.787464 1109.677490,57.787464 
	C1109.677490,48.281975 1109.677490,39.209599 1109.677490,30.312284 
	C1071.291748,30.312284 1033.229004,30.312284 995.293579,30.312284 
	C995.293579,91.014984 995.293579,151.405014 995.293579,212.000000 
	C1019.224426,212.000000 1042.862183,212.000000 1067.500000,212.000000 
M873.036682,113.571556 
	C873.595154,112.955772 874.249451,112.402557 874.698303,111.715179 
	C889.485046,89.068893 904.234558,66.398308 919.036438,43.761936 
	C922.090027,39.092129 925.327576,34.542656 928.651184,29.688240 
	C926.003540,29.815840 924.093140,29.982925 922.182373,29.987564 
	C911.519287,30.013445 900.853943,29.894238 890.195068,30.106916 
	C888.472473,30.141285 886.176453,31.133478 885.166565,32.460152 
	C877.623474,42.369999 870.342957,52.479534 862.969604,62.518787 
	C847.646912,83.381744 832.328186,104.247589 816.987793,125.097534 
	C805.382263,140.871307 793.730469,156.611084 782.127991,172.387100 
	C772.371948,185.652374 762.657349,198.948044 752.844910,212.338699 
	C754.978699,212.215698 756.849304,212.017426 758.720154,212.014297 
	C773.881836,211.988846 789.043701,211.955521 804.204895,212.041229 
	C806.915710,212.056549 808.525635,211.259720 810.108887,208.819626 
	C821.832886,190.750336 833.789673,172.832108 845.929932,154.478546 
	C846.809692,155.528992 847.523438,156.165359 847.975037,156.952148 
	C857.331970,173.255997 866.617981,189.600662 876.022156,205.877075 
	C878.251160,209.734894 881.318115,212.171600 886.316162,212.080002 
	C899.307556,211.841980 912.306091,212.008270 925.301819,211.986282 
	C926.509949,211.984238 927.717773,211.790390 929.160156,211.665253 
	C927.863892,209.261948 926.905457,207.250946 925.743347,205.365524 
	C907.935974,176.475586 890.077881,147.616806 872.379028,118.660667 
	C871.786377,117.691048 872.740295,115.776131 873.036682,113.571556 
M1432.000000,75.501831 
	C1432.000000,120.925652 1432.000000,166.349472 1432.000000,211.715195 
	C1443.971680,211.715195 1455.376709,211.715195 1467.169067,211.715195 
	C1467.169067,160.697250 1467.169067,109.962959 1467.169067,58.833252 
	C1485.299072,58.833252 1503.039429,58.833252 1520.714600,58.833252 
	C1520.714600,49.026840 1520.714600,39.621574 1520.714600,30.282131 
	C1473.028442,30.282131 1425.628174,30.282131 1378.285034,30.282131 
	C1378.285034,39.972340 1378.285034,49.377804 1378.285034,59.174782 
	C1396.307129,59.174782 1414.047607,59.174782 1432.000000,59.174782 
	C1432.000000,64.548653 1432.000000,69.525978 1432.000000,75.501831 
M784.030823,75.338432 
	C787.933960,81.219116 791.837097,87.099800 796.259033,93.762146 
	C805.021606,81.587791 813.562256,69.721664 821.997620,58.001846 
	C818.576721,52.097931 815.082214,46.501629 812.022827,40.676777 
	C808.220337,33.437084 803.737915,28.036066 794.286560,29.882030 
	C790.594360,30.603176 786.643494,30.000000 782.810425,30.000000 
	C773.902588,30.000000 764.994812,30.000000 755.430847,30.000000 
	C764.942749,44.865032 774.453613,59.728420 784.030823,75.338432 
z"/>
<path fill="#FFFFFF" opacity="1.000000" stroke="none" 
	d="
M143.533142,1.000000 
	C144.486267,1.663022 144.881042,2.807667 145.471924,2.919887 
	C173.100388,8.167175 195.546631,22.454428 213.657791,43.376736 
	C228.614395,60.654835 237.699188,81.179779 240.751404,103.799843 
	C242.186676,114.436653 240.997299,125.427612 240.997299,136.707581 
	C213.893982,136.707581 186.844864,136.707581 159.775528,136.707581 
	C159.775528,157.947510 159.775528,178.739410 159.775528,199.531326 
	C160.200546,199.924515 160.625549,200.317688 161.050568,200.710876 
	C168.036942,195.640869 175.488419,191.093277 181.903641,185.381729 
	C192.225052,176.192444 199.459091,164.690216 204.149734,151.609985 
	C204.555420,150.478714 206.371063,149.137436 207.556076,149.113831 
	C217.534073,148.914841 227.517746,149.000443 238.810944,149.000443 
	C236.607651,155.697418 235.042709,162.005371 232.500107,167.890945 
	C224.955902,185.353989 213.985199,200.549026 199.494080,212.819717 
	C183.921692,226.005997 166.079742,235.058777 145.872040,239.035599 
	C144.999741,239.207260 144.225327,239.876251 143.702667,240.656799 
	C138.977905,241.000000 133.955811,241.000000 128.466858,240.531342 
	C128.000000,205.727295 128.000000,171.391922 128.000000,137.362061 
	C123.191315,137.362061 119.125381,137.362061 115.000000,137.362061 
	C115.000000,172.149384 115.000000,206.574692 115.000000,241.000000 
	C109.977905,241.000000 104.955818,241.000000 99.461044,240.584991 
	C97.573853,239.768539 96.162186,239.356766 94.744415,238.967209 
	C70.650490,232.346802 49.448044,221.097473 32.488869,202.146133 
	C17.267599,185.136871 7.027907,165.918106 2.918206,143.442520 
	C2.812441,142.864105 1.662808,142.476562 0.999999,142.000000 
	C1.000000,129.979111 1.000000,117.958214 1.468657,105.468658 
	C28.868408,105.000000 55.799500,105.000000 83.052795,105.000000 
	C83.052795,71.707893 83.052795,38.934734 83.052795,6.026230 
	C88.238907,4.966348 93.149643,4.008646 98.023384,2.889812 
	C98.469994,2.787286 98.680084,1.654419 99.000000,1.000000 
	C104.022095,1.000000 109.044182,1.000000 114.533142,1.468657 
	C115.000000,36.272701 115.000000,70.608086 115.000000,104.637955 
	C119.806351,104.637955 123.873940,104.637955 128.000000,104.637955 
	C128.000000,69.850639 128.000000,35.425320 128.000000,1.000000 
	C133.022095,1.000000 138.044189,1.000000 143.533142,1.000000 
M57.500038,137.000000 
	C49.846046,137.000000 42.192059,137.000000 34.341888,137.000000 
	C40.349064,165.857086 56.201389,186.853561 82.706474,200.488174 
	C82.706474,178.906204 82.706474,158.056320 82.706474,137.000000 
	C74.443069,137.000000 66.471542,137.000000 57.500038,137.000000 
M195.487595,105.000000 
	C199.618927,105.000000 203.750244,105.000000 207.934692,105.000000 
	C204.323410,78.550972 183.226974,51.073936 159.824310,42.099220 
	C159.824310,63.102272 159.824310,83.926987 159.824310,105.000000 
	C171.219315,105.000000 182.854950,105.000000 195.487595,105.000000 
z"/>
<path fill="#FFFFFF" opacity="1.000000" stroke="none" 
	d="
M1761.000000,140.531311 
	C1760.333618,141.644562 1759.232056,142.192612 1759.064575,142.947891 
	C1754.586670,163.132645 1745.302368,180.251343 1729.048828,193.648895 
	C1716.311279,204.148315 1701.777588,210.544968 1685.887207,212.768631 
	C1651.883911,217.526932 1621.667236,209.110718 1598.384521,182.646957 
	C1587.822388,170.641724 1581.349487,156.139374 1579.078735,140.146622 
	C1577.953125,132.218842 1576.640991,124.102104 1577.179932,116.191231 
	C1579.350952,84.329254 1591.823853,58.055820 1620.164307,40.966061 
	C1631.530884,34.111874 1643.792236,30.540686 1656.964355,28.858009 
	C1678.539673,26.101866 1698.683350,29.973263 1717.578125,40.288475 
	C1731.017090,47.625286 1741.498047,58.311169 1748.889038,71.705139 
	C1753.855835,80.706070 1758.072510,90.121376 1759.277222,100.553970 
	C1759.321289,100.936348 1759.946289,101.251625 1760.650391,101.299072 
	C1761.000000,114.020897 1761.000000,127.041786 1761.000000,140.531311 
M1724.998047,106.776421 
	C1724.665039,105.199707 1724.328003,103.623795 1723.999268,102.046173 
	C1721.499756,90.053001 1716.595825,79.006966 1707.286865,71.053535 
	C1690.418945,56.641842 1670.400146,54.559223 1649.972046,60.751362 
	C1624.911499,68.347733 1614.725098,89.074051 1613.204590,112.960686 
	C1612.616333,122.202568 1613.592285,131.717560 1615.159790,140.885162 
	C1617.982788,157.394943 1626.799927,170.277206 1641.969238,177.902618 
	C1653.725952,183.812500 1666.297363,185.112900 1679.412354,183.097519 
	C1693.833374,180.881378 1705.315430,174.437668 1714.095459,162.673599 
	C1722.854492,150.937607 1725.061279,137.376236 1725.895630,123.422112 
	C1726.207153,118.212059 1725.333374,112.931145 1724.998047,106.776421 
z"/>
<path fill="#000000" opacity="1.000000" stroke="none" 
	d="
M98.531342,1.000000 
	C98.680084,1.654419 98.469994,2.787286 98.023384,2.889812 
	C93.149643,4.008646 88.238907,4.966348 83.052795,6.026230 
	C83.052795,38.934734 83.052795,71.707893 83.052795,105.000000 
	C55.799500,105.000000 28.868408,105.000000 1.468657,105.000000 
	C1.000000,70.408562 1.000000,35.817131 1.000000,1.000000 
	C33.353878,1.000000 65.708282,1.000000 98.531342,1.000000 
z"/>
<path fill="#000000" opacity="1.000000" stroke="none" 
	d="
M0.999999,142.468658 
	C1.662808,142.476562 2.812441,142.864105 2.918206,143.442520 
	C7.027907,165.918106 17.267599,185.136871 32.488869,202.146133 
	C49.448044,221.097473 70.650490,232.346802 94.744415,238.967209 
	C96.162186,239.356766 97.573853,239.768539 98.994186,240.584991 
	C66.406029,241.000000 33.812065,241.000000 1.000000,241.000000 
	C1.000000,208.312759 1.000000,175.625046 0.999999,142.468658 
z"/>
<path fill="#000000" opacity="1.000000" stroke="none" 
	d="
M115.463181,241.000000 
	C115.000000,206.574692 115.000000,172.149384 115.000000,137.362061 
	C119.125381,137.362061 123.191315,137.362061 128.000000,137.362061 
	C128.000000,171.391922 128.000000,205.727295 128.000000,240.531342 
	C123.975456,241.000000 119.950912,241.000000 115.463181,241.000000 
z"/>
<path fill="#000000" opacity="1.000000" stroke="none" 
	d="
M127.536819,1.000000 
	C128.000000,35.425320 128.000000,69.850639 128.000000,104.637955 
	C123.873940,104.637955 119.806351,104.637955 115.000000,104.637955 
	C115.000000,70.608086 115.000000,36.272701 115.000000,1.468657 
	C119.024544,1.000000 123.049088,1.000000 127.536819,1.000000 
z"/>
<path fill="#FFFFFF" opacity="1.000000" stroke="none" 
	d="
M344.000000,63.000000 
	C344.000000,51.856018 344.000000,41.212036 344.000000,30.251970 
	C345.470581,30.159616 346.741241,30.010954 348.011993,30.010214 
	C371.845001,29.996334 395.700470,29.360289 419.504150,30.195667 
	C439.761719,30.906599 458.343964,37.362087 474.262970,50.669609 
	C491.495483,65.075165 500.824738,83.517067 504.043976,105.488266 
	C507.054382,126.034081 504.845612,145.969315 495.639038,164.511108 
	C484.148987,187.651825 465.006744,202.267090 440.163483,208.730972 
	C431.264374,211.046417 421.758789,211.685181 412.506744,211.860199 
	C389.870331,212.288406 367.220306,212.000000 344.000000,212.000000 
	C344.000000,162.356781 344.000000,112.928391 344.000000,63.000000 
M379.000000,153.500000 
	C379.000000,163.567947 379.000000,173.635880 379.000000,183.001602 
	C393.357666,183.001602 408.332642,184.061096 423.096252,182.746704 
	C443.865204,180.897644 457.816803,168.840363 464.938812,149.324524 
	C469.389252,137.129257 471.323486,124.394791 468.875641,111.525101 
	C467.146667,102.434860 465.752411,92.786690 461.572601,84.760391 
	C453.029175,68.354889 438.124298,59.576241 419.828735,58.204544 
	C406.101593,57.175369 392.235382,58.001266 378.325958,58.001266 
	C378.612457,58.901592 378.956818,59.479591 378.957428,60.057945 
	C378.989960,90.871948 378.993469,121.685974 379.000000,153.500000 
z"/>
<path fill="#FFFFFF" opacity="1.000000" stroke="none" 
	d="
M1305.767090,111.637611 
	C1297.844727,122.629463 1287.894287,130.315018 1276.472046,133.776947 
	C1281.746948,140.768265 1287.347534,147.667038 1292.375854,154.960449 
	C1304.365356,172.351501 1316.088257,189.926346 1327.905029,207.436371 
	C1328.699097,208.613312 1329.376465,209.868988 1330.655396,212.000000 
	C1323.045410,212.000000 1316.063599,211.182251 1309.345703,212.166275 
	C1294.280884,214.372940 1286.534546,206.449829 1279.567871,194.498337 
	C1269.682617,177.539948 1258.485107,161.322281 1247.277954,145.184250 
	C1245.554688,142.702835 1240.875977,141.681183 1237.389282,141.164703 
	C1232.852051,140.492615 1228.140137,141.000397 1223.110229,141.000397 
	C1223.110229,164.684555 1223.110229,188.091232 1223.110229,211.747330 
	C1211.310181,211.747330 1199.905396,211.747330 1188.249512,211.747330 
	C1188.249512,151.304993 1188.249512,90.904037 1188.249512,30.000000 
	C1189.890259,30.000000 1191.498047,30.000000 1193.105835,30.000000 
	C1211.104126,30.000000 1229.102417,29.956135 1247.100586,30.014540 
	C1260.357300,30.057560 1273.524658,31.731361 1285.500610,37.390308 
	C1300.098511,44.288307 1310.406128,55.133945 1313.114014,72.119431 
	C1315.356934,86.189659 1313.422974,99.178658 1305.767090,111.637611 
M1238.488281,116.000008 
	C1243.227051,115.667740 1247.985107,115.506058 1252.701172,114.973358 
	C1271.974243,112.796448 1281.630981,99.675957 1279.888672,81.167412 
	C1279.252808,74.410751 1276.622437,68.397980 1270.666382,63.978249 
	C1264.881348,59.685493 1258.564819,58.191463 1251.658691,57.911430 
	C1242.169922,57.526665 1232.684814,57.049480 1223.288696,56.616074 
	C1223.288696,77.010254 1223.288696,96.399040 1223.288696,116.000000 
	C1228.215210,116.000000 1232.854614,116.000000 1238.488281,116.000008 
z"/>
<path fill="#FFFFFF" opacity="1.000000" stroke="none" 
	d="
M637.000793,107.000000 
	C652.140747,107.000000 666.780945,107.000000 681.710083,107.000000 
	C681.710083,115.943802 681.710083,124.681488 681.710083,133.840485 
	C660.717346,133.840485 639.643372,133.840485 618.678894,133.840485 
	C618.678894,150.726410 618.678894,167.192535 618.678894,183.865555 
	C645.016357,183.865555 671.648987,183.865555 698.640625,183.865555 
	C698.640625,193.132401 698.640625,202.206879 698.640625,211.641556 
	C660.745117,211.641556 622.564941,211.641556 584.191833,211.641556 
	C584.191833,151.200409 584.191833,90.810631 584.191833,30.210423 
	C622.434509,30.210423 660.496643,30.210423 698.779480,30.210423 
	C698.779480,39.420635 698.779480,48.490196 698.779480,57.948997 
	C671.898743,57.948997 645.147644,57.948997 618.682739,57.948997 
	C618.682739,74.373375 618.682739,90.409164 618.682739,107.000000 
	C624.399719,107.000000 630.450317,107.000000 637.000793,107.000000 
z"/>
<path fill="#FFFFFF" opacity="1.000000" stroke="none" 
	d="
M1067.000000,212.000000 
	C1042.862183,212.000000 1019.224426,212.000000 995.293579,212.000000 
	C995.293579,151.405014 995.293579,91.014984 995.293579,30.312284 
	C1033.229004,30.312284 1071.291748,30.312284 1109.677490,30.312284 
	C1109.677490,39.209599 1109.677490,48.281975 1109.677490,57.787464 
	C1083.124268,57.787464 1056.392090,57.787464 1029.648193,57.787464 
	C1029.648193,74.354027 1029.648193,90.487556 1029.648193,106.989563 
	C1050.386108,106.989563 1071.479980,106.989563 1092.784912,106.989563 
	C1092.784912,116.098503 1092.784912,124.834740 1092.784912,133.855682 
	C1071.703613,133.855682 1050.768677,133.855682 1029.677368,133.855682 
	C1029.677368,150.583832 1029.677368,167.026733 1029.677368,183.844116 
	C1056.044189,183.844116 1082.738770,183.844116 1109.715576,183.844116 
	C1109.715576,193.288681 1109.715576,202.359543 1109.715576,212.000000 
	C1095.687256,212.000000 1081.593628,212.000000 1067.000000,212.000000 
z"/>
<path fill="#FFFFFF" opacity="1.000000" stroke="none" 
	d="
M873.005005,113.936707 
	C872.740295,115.776131 871.786377,117.691048 872.379028,118.660667 
	C890.077881,147.616806 907.935974,176.475586 925.743347,205.365524 
	C926.905457,207.250946 927.863892,209.261948 929.160156,211.665253 
	C927.717773,211.790390 926.509949,211.984238 925.301819,211.986282 
	C912.306091,212.008270 899.307556,211.841980 886.316162,212.080002 
	C881.318115,212.171600 878.251160,209.734894 876.022156,205.877075 
	C866.617981,189.600662 857.331970,173.255997 847.975037,156.952148 
	C847.523438,156.165359 846.809692,155.528992 845.929932,154.478546 
	C833.789673,172.832108 821.832886,190.750336 810.108887,208.819626 
	C808.525635,211.259720 806.915710,212.056549 804.204895,212.041229 
	C789.043701,211.955521 773.881836,211.988846 758.720154,212.014297 
	C756.849304,212.017426 754.978699,212.215698 752.844910,212.338699 
	C762.657349,198.948044 772.371948,185.652374 782.127991,172.387100 
	C793.730469,156.611084 805.382263,140.871307 816.987793,125.097534 
	C832.328186,104.247589 847.646912,83.381744 862.969604,62.518787 
	C870.342957,52.479534 877.623474,42.369999 885.166565,32.460152 
	C886.176453,31.133478 888.472473,30.141285 890.195068,30.106916 
	C900.853943,29.894238 911.519287,30.013445 922.182373,29.987564 
	C924.093140,29.982925 926.003540,29.815840 928.651184,29.688240 
	C925.327576,34.542656 922.090027,39.092129 919.036438,43.761936 
	C904.234558,66.398308 889.485046,89.068893 874.698303,111.715179 
	C874.249451,112.402557 873.595154,112.955772 873.005005,113.936707 
z"/>
<path fill="#FFFFFF" opacity="1.000000" stroke="none" 
	d="
M1432.000000,75.002563 
	C1432.000000,69.525978 1432.000000,64.548653 1432.000000,59.174782 
	C1414.047607,59.174782 1396.307129,59.174782 1378.285034,59.174782 
	C1378.285034,49.377804 1378.285034,39.972340 1378.285034,30.282131 
	C1425.628174,30.282131 1473.028442,30.282131 1520.714600,30.282131 
	C1520.714600,39.621574 1520.714600,49.026840 1520.714600,58.833252 
	C1503.039429,58.833252 1485.299072,58.833252 1467.169067,58.833252 
	C1467.169067,109.962959 1467.169067,160.697250 1467.169067,211.715195 
	C1455.376709,211.715195 1443.971680,211.715195 1432.000000,211.715195 
	C1432.000000,166.349472 1432.000000,120.925652 1432.000000,75.002563 
z"/>
<path fill="#FFFFFF" opacity="1.000000" stroke="none" 
	d="
M783.997681,74.965118 
	C774.453613,59.728420 764.942749,44.865032 755.430847,30.000000 
	C764.994812,30.000000 773.902588,30.000000 782.810425,30.000000 
	C786.643494,30.000000 790.594360,30.603176 794.286560,29.882030 
	C803.737915,28.036066 808.220337,33.437084 812.022827,40.676777 
	C815.082214,46.501629 818.576721,52.097931 821.997620,58.001846 
	C813.562256,69.721664 805.021606,81.587791 796.259033,93.762146 
	C791.837097,87.099800 787.933960,81.219116 783.997681,74.965118 
z"/>
<path fill="#000000" opacity="1.000000" stroke="none" 
	d="
M58.000023,137.000000 
	C66.471542,137.000000 74.443069,137.000000 82.706474,137.000000 
	C82.706474,158.056320 82.706474,178.906204 82.706474,200.488174 
	C56.201389,186.853561 40.349064,165.857086 34.341888,137.000000 
	C42.192059,137.000000 49.846046,137.000000 58.000023,137.000000 
z"/>
<path fill="#000000" opacity="1.000000" stroke="none" 
	d="
M194.989090,105.000000 
	C182.854950,105.000000 171.219315,105.000000 159.824310,105.000000 
	C159.824310,83.926987 159.824310,63.102272 159.824310,42.099220 
	C183.226974,51.073936 204.323410,78.550972 207.934692,105.000000 
	C203.750244,105.000000 199.618927,105.000000 194.989090,105.000000 
z"/>
<path fill="#000000" opacity="1.000000" stroke="none" 
	d="
M1724.999023,107.229477 
	C1725.333374,112.931145 1726.207153,118.212059 1725.895630,123.422112 
	C1725.061279,137.376236 1722.854492,150.937607 1714.095459,162.673599 
	C1705.315430,174.437668 1693.833374,180.881378 1679.412354,183.097519 
	C1666.297363,185.112900 1653.725952,183.812500 1641.969238,177.902618 
	C1626.799927,170.277206 1617.982788,157.394943 1615.159790,140.885162 
	C1613.592285,131.717560 1612.616333,122.202568 1613.204590,112.960686 
	C1614.725098,89.074051 1624.911499,68.347733 1649.972046,60.751362 
	C1670.400146,54.559223 1690.418945,56.641842 1707.286865,71.053535 
	C1716.595825,79.006966 1721.499756,90.053001 1723.999268,102.046173 
	C1724.328003,103.623795 1724.665039,105.199707 1724.999023,107.229477 
z"/>
<path fill="#000000" opacity="1.000000" stroke="none" 
	d="
M379.000000,153.000000 
	C378.993469,121.685974 378.989960,90.871948 378.957428,60.057945 
	C378.956818,59.479591 378.612457,58.901592 378.325958,58.001266 
	C392.235382,58.001266 406.101593,57.175369 419.828735,58.204544 
	C438.124298,59.576241 453.029175,68.354889 461.572601,84.760391 
	C465.752411,92.786690 467.146667,102.434860 468.875641,111.525101 
	C471.323486,124.394791 469.389252,137.129257 464.938812,149.324524 
	C457.816803,168.840363 443.865204,180.897644 423.096252,182.746704 
	C408.332642,184.061096 393.357666,183.001602 379.000000,183.001602 
	C379.000000,173.635880 379.000000,163.567947 379.000000,153.000000 
z"/>
<path fill="#000000" opacity="1.000000" stroke="none" 
	d="
M1237.991211,116.000000 
	C1232.854614,116.000000 1228.215210,116.000000 1223.288696,116.000000 
	C1223.288696,96.399040 1223.288696,77.010254 1223.288696,56.616074 
	C1232.684814,57.049480 1242.169922,57.526665 1251.658691,57.911430 
	C1258.564819,58.191463 1264.881348,59.685493 1270.666382,63.978249 
	C1276.622437,68.397980 1279.252808,74.410751 1279.888672,81.167412 
	C1281.630981,99.675957 1271.974243,112.796448 1252.701172,114.973358 
	C1247.985107,115.506058 1243.227051,115.667740 1237.991211,116.000000 
z"/>
</svg>